<svg width="20" height="20" viewBox="0 0 20 20" fill="none" xmlns="http://www.w3.org/2000/svg">
<g id="angle-double-small-right 1">
<path id="angles-right-small" d="M8.18322 10.4417L11.5166 13.775C11.635 13.8854 11.7917 13.9455 11.9537 13.9426C12.1156 13.9398 12.2701 13.8742 12.3846 13.7597C12.4991 13.6452 12.5647 13.4907 12.5675 13.3288C12.5704 13.1668 12.5103 13.0101 12.3999 12.8917L9.50905 9.99999L12.3999 7.10833C12.5103 6.98985 12.5704 6.83314 12.5675 6.67123C12.5647 6.50931 12.4991 6.35482 12.3846 6.24031C12.2701 6.1258 12.1156 6.06021 11.9537 6.05735C11.7917 6.05449 11.635 6.11459 11.5166 6.22499L8.18322 9.55833C8.12516 9.6163 8.07911 9.68514 8.04768 9.76093C8.01626 9.83672 8.00009 9.91795 8.00009 9.99999C8.00009 10.082 8.01626 10.1633 8.04768 10.2391C8.07911 10.3148 8.12516 10.3837 8.18322 10.4417Z" fill="#607D93"/>
</g>
</svg>
