<svg width="20" height="20" viewBox="0 0 20 20" fill="none" xmlns="http://www.w3.org/2000/svg">
<g id="angle-double-small-right 1">
<path id="angles-right-small" d="M11.8168 10.4417L8.48345 13.775C8.36497 13.8854 8.20827 13.9455 8.04635 13.9426C7.88443 13.9398 7.72994 13.8742 7.61543 13.7597C7.50092 13.6452 7.43533 13.4907 7.43247 13.3288C7.42961 13.1668 7.48972 13.0101 7.60012 12.8917L10.4909 9.99999L7.60012 7.10833C7.48972 6.98985 7.42961 6.83314 7.43247 6.67123C7.43533 6.50931 7.50092 6.35482 7.61543 6.24031C7.72994 6.1258 7.88443 6.06021 8.04635 6.05735C8.20827 6.05449 8.36497 6.11459 8.48345 6.22499L11.8168 9.55833C11.8748 9.6163 11.9209 9.68514 11.9523 9.76093C11.9837 9.83672 11.9999 9.91795 11.9999 9.99999C11.9999 10.082 11.9837 10.1633 11.9523 10.2391C11.9209 10.3148 11.8748 10.3837 11.8168 10.4417Z" fill="#607D93"/>
</g>
</svg>
