<svg width="20" height="20" viewBox="0 0 20 20" fill="none" xmlns="http://www.w3.org/2000/svg">
<g id="angle-double-small-right 1">
<path id="angles-right-small" d="M14.6083 10.4417L11.275 13.775C11.1565 13.8854 10.9998 13.9455 10.8379 13.9426C10.676 13.9398 10.5215 13.8742 10.407 13.7597C10.2925 13.6452 10.2269 13.4907 10.224 13.3288C10.2212 13.1668 10.2813 13.0101 10.3917 12.8917L13.2825 9.99999L10.3917 7.10833C10.2813 6.98985 10.2212 6.83314 10.224 6.67123C10.2269 6.50931 10.2925 6.35482 10.407 6.24031C10.5215 6.1258 10.676 6.06021 10.8379 6.05735C10.9998 6.05449 11.1565 6.11459 11.275 6.22499L14.6083 9.55833C14.6664 9.6163 14.7124 9.68515 14.7439 9.76093C14.7753 9.83672 14.7915 9.91795 14.7915 9.99999C14.7915 10.082 14.7753 10.1633 14.7439 10.2391C14.7124 10.3148 14.6664 10.3837 14.6083 10.4417ZM6.275 6.22499C6.15652 6.11459 5.99981 6.05449 5.8379 6.05735C5.67598 6.06021 5.52149 6.1258 5.40698 6.24031C5.29247 6.35482 5.22688 6.50931 5.22402 6.67123C5.22116 6.83314 5.28126 6.98985 5.39166 7.10833L8.2825 9.99999L5.39166 12.8917C5.33026 12.9489 5.28101 13.0179 5.24685 13.0945C5.21269 13.1712 5.19432 13.254 5.19284 13.3379C5.19136 13.4218 5.2068 13.5052 5.23823 13.583C5.26966 13.6608 5.31645 13.7315 5.3758 13.7909C5.43515 13.8502 5.50584 13.897 5.58367 13.9284C5.66149 13.9599 5.74485 13.9753 5.82877 13.9738C5.91269 13.9723 5.99545 13.954 6.07211 13.9198C6.14878 13.8857 6.21778 13.8364 6.275 13.775L9.60833 10.4417C9.66638 10.3837 9.71244 10.3148 9.74386 10.2391C9.77529 10.1633 9.79146 10.082 9.79146 9.99999C9.79146 9.91795 9.77529 9.83672 9.74386 9.76093C9.71244 9.68515 9.66638 9.6163 9.60833 9.55833L6.275 6.22499Z" fill="#607D93"/>
</g>
</svg>
