<svg width="20" height="20" viewBox="0 0 20 20" fill="none" xmlns="http://www.w3.org/2000/svg">
<g id="angle-double-small-right 1">
<path id="angles-right-small" d="M5.39166 10.4417L8.72499 13.775C8.84347 13.8854 9.00018 13.9455 9.1621 13.9426C9.32401 13.9398 9.4785 13.8742 9.59301 13.7597C9.70752 13.6452 9.77312 13.4907 9.77597 13.3288C9.77883 13.1668 9.71873 13.0101 9.60833 12.8917L6.71749 9.99999L9.60833 7.10833C9.71873 6.98985 9.77883 6.83314 9.77597 6.67123C9.77312 6.50931 9.70752 6.35482 9.59301 6.24031C9.4785 6.1258 9.32401 6.06021 9.1621 6.05735C9.00018 6.05449 8.84347 6.11459 8.72499 6.22499L5.39166 9.55833C5.33361 9.6163 5.28755 9.68515 5.25613 9.76093C5.22471 9.83672 5.20853 9.91795 5.20853 9.99999C5.20853 10.082 5.22471 10.1633 5.25613 10.2391C5.28755 10.3148 5.33361 10.3837 5.39166 10.4417ZM13.725 6.22499C13.8435 6.11459 14.0002 6.05449 14.1621 6.05735C14.324 6.06021 14.4785 6.1258 14.593 6.24031C14.7075 6.35482 14.7731 6.50931 14.776 6.67123C14.7788 6.83314 14.7187 6.98985 14.6083 7.10833L11.7175 9.99999L14.6083 12.8917C14.6697 12.9489 14.719 13.0179 14.7531 13.0945C14.7873 13.1712 14.8057 13.254 14.8072 13.3379C14.8086 13.4218 14.7932 13.5052 14.7618 13.583C14.7303 13.6608 14.6835 13.7315 14.6242 13.7909C14.5648 13.8502 14.4941 13.897 14.4163 13.9284C14.3385 13.9599 14.2551 13.9753 14.1712 13.9738C14.0873 13.9723 14.0045 13.954 13.9279 13.9198C13.8512 13.8857 13.7822 13.8364 13.725 13.775L10.3917 10.4417C10.3336 10.3837 10.2876 10.3148 10.2561 10.2391C10.2247 10.1633 10.2085 10.082 10.2085 9.99999C10.2085 9.91795 10.2247 9.83672 10.2561 9.76093C10.2876 9.68515 10.3336 9.6163 10.3917 9.55833L13.725 6.22499Z" fill="#607D93"/>
</g>
</svg>
