<svg width="20" height="21" viewBox="0 0 20 21" fill="none" xmlns="http://www.w3.org/2000/svg">
<g id="directions 1">
<path id="Vector" d="M9.01324 3.84572L9.02291 3.88325H9.06167H13.75C15.7935 3.88325 17.45 5.5398 17.45 7.58325C17.45 9.62672 15.7935 11.2833 13.75 11.2833H6.25C5.07179 11.2833 4.11667 12.2384 4.11667 13.4166C4.11667 14.5948 5.07179 15.5499 6.25 15.5499H14.7339H14.861L14.768 15.4633L13.6329 14.4066C13.3163 14.1118 13.2986 13.6161 13.5933 13.2995C13.8881 12.9829 14.3838 12.9652 14.7004 13.2599L17.0693 15.4653C17.5769 15.9378 17.5769 16.7287 17.0693 17.2012L14.7004 19.4066C14.3838 19.7013 13.8881 19.6836 13.5933 19.367C13.2986 19.0504 13.3163 18.5547 13.6329 18.2599L14.768 17.2032L14.861 17.1166H14.7339H6.25C4.20655 17.1166 2.55 15.4601 2.55 13.4166C2.55 11.3731 4.20655 9.71659 6.25 9.71659H13.75C14.9282 9.71659 15.8833 8.76146 15.8833 7.58325C15.8833 6.40505 14.9282 5.44992 13.75 5.44992H9.06167H9.02291L9.01324 5.48745C8.64871 6.90359 7.36317 7.94992 5.83333 7.94992C4.02 7.94992 2.55 6.47992 2.55 4.66659C2.55 2.85325 4.02 1.38325 5.83333 1.38325C7.36317 1.38325 8.64871 2.42958 9.01324 3.84572ZM5.83333 2.94992C4.88524 2.94992 4.11667 3.7185 4.11667 4.66659C4.11667 5.61467 4.88524 6.38325 5.83333 6.38325C6.78142 6.38325 7.55 5.61467 7.55 4.66659C7.55 3.7185 6.78142 2.94992 5.83333 2.94992Z" fill="#0D2130" stroke="white" stroke-width="0.1"/>
</g>
</svg>
