<svg width="20" height="21" viewBox="0 0 20 21" fill="none" xmlns="http://www.w3.org/2000/svg">
<g id="simulator 1" clip-path="url(#clip0_844_6825)">
<g id="Mask group">
<mask id="mask0_844_6825" style="mask-type:luminance" maskUnits="userSpaceOnUse" x="0" y="0" width="20" height="21">
<g id="Group">
<path id="bg" d="M20 0.5H0V20.5H20V0.5Z" fill="white"/>
</g>
</mask>
<g mask="url(#mask0_844_6825)">
<g id="Group_2">
<g id="g903">
<g id="g905">
<g id="Clip path group">
<mask id="mask1_844_6825" style="mask-type:luminance" maskUnits="userSpaceOnUse" x="0" y="0" width="20" height="21">
<g id="clipPath911">
<path id="path909" d="M19.95 20.45V0.550001H0.05V20.45H19.95Z" fill="white" stroke="white" stroke-width="0.1"/>
</g>
</mask>
<g mask="url(#mask1_844_6825)">
<g id="g907">
<g id="g913">
<path id="path915 (Stroke)" fill-rule="evenodd" clip-rule="evenodd" d="M10.7812 19.7188V16.125H9.21875V19.7188H10.7812Z" fill="#0D2130" stroke="#0D2130" stroke-width="0.1" stroke-miterlimit="10"/>
</g>
<g id="g917">
<path id="path919 (Stroke)" fill-rule="evenodd" clip-rule="evenodd" d="M13.9062 18.9375H6.09375V20.5H13.9062V18.9375Z" fill="#0D2130" stroke="#0D2130" stroke-width="0.1" stroke-miterlimit="10"/>
</g>
<g id="g921">
<path id="path923 (Stroke)" fill-rule="evenodd" clip-rule="evenodd" d="M10 13.0923L15.4688 10.3579V3.22036L10 0.485983L4.53125 3.22036V10.3579L10 13.0923ZM6.09375 9.39223V4.18604L10 2.23291L13.9062 4.18604V9.39223L10 11.3454L6.09375 9.39223Z" fill="#0D2130" stroke="#0D2130" stroke-width="0.1" stroke-miterlimit="10"/>
</g>
</g>
</g>
</g>
</g>
<g id="g925">
<path id="path927 (Stroke)" fill-rule="evenodd" clip-rule="evenodd" d="M10.7812 12.2188V6.04688H9.21875V12.2188H10.7812Z" fill="#0D2130" stroke="#0D2130" stroke-width="0.1" stroke-miterlimit="10"/>
</g>
<g id="g929">
<path id="path931 (Stroke)" fill-rule="evenodd" clip-rule="evenodd" d="M10.3494 5.34806L5.66189 3.00431L4.96312 4.40186L9.65062 6.74561L10.3494 5.34806Z" fill="#0D2130" stroke="#0D2130" stroke-width="0.1" stroke-miterlimit="10"/>
</g>
<g id="g933">
<path id="path935 (Stroke)" fill-rule="evenodd" clip-rule="evenodd" d="M10.3494 6.74561L15.0369 4.40186L14.3381 3.00431L9.65062 5.34806L10.3494 6.74561Z" fill="#0D2130" stroke="#0D2130" stroke-width="0.1" stroke-miterlimit="10"/>
</g>
<g id="g937">
<g id="Clip path group_2">
<mask id="mask2_844_6825" style="mask-type:luminance" maskUnits="userSpaceOnUse" x="0" y="0" width="20" height="21">
<g id="clipPath943">
<path id="path941" d="M0 0.500002H20V20.5H0V0.500002Z" fill="white"/>
</g>
</mask>
<g mask="url(#mask2_844_6825)">
<g id="g939">
<g id="g945">
<path id="path947 (Stroke)" fill-rule="evenodd" clip-rule="evenodd" d="M0 14.5625C0 15.8569 1.04935 16.9062 2.34375 16.9062H17.6562C18.9507 16.9062 20 15.8569 20 14.5625V8.3125C20 7.01811 18.9507 5.96875 17.6562 5.96875H17.0312V7.53125H17.6562C18.0877 7.53125 18.4375 7.88103 18.4375 8.3125V14.5625C18.4375 14.994 18.0877 15.3438 17.6562 15.3438H2.34375C1.91229 15.3438 1.5625 14.994 1.5625 14.5625V8.3125C1.5625 7.88104 1.91229 7.53125 2.34375 7.53125H2.96875V5.96875H2.34375C1.04935 5.96875 0 7.0181 0 8.3125V14.5625Z" fill="#0D2130"/>
</g>
</g>
</g>
</g>
</g>
</g>
</g>
</g>
</g>
</g>
<defs>
<clipPath id="clip0_844_6825">
<rect width="20" height="20" fill="white" transform="translate(0 0.5)"/>
</clipPath>
</defs>
</svg>
