<svg width="13" height="3" viewBox="0 0 13 3" fill="none" xmlns="http://www.w3.org/2000/svg">
<path d="M0.824 0.672C1.00533 0.501333 1.21867 0.416 1.464 0.416C1.70933 0.416 1.91733 0.501333 2.088 0.672C2.26933 0.842667 2.36 1.05067 2.36 1.296C2.36 1.54133 2.26933 1.75467 2.088 1.936C1.91733 2.11733 1.70933 2.208 1.464 2.208C1.21867 2.208 1.00533 2.11733 0.824 1.936C0.653333 1.75467 0.568 1.54133 0.568 1.296C0.568 1.05067 0.653333 0.842667 0.824 0.672ZM6.06588 0.672C6.24721 0.501333 6.46054 0.416 6.70588 0.416C6.95121 0.416 7.15921 0.501333 7.32988 0.672C7.51121 0.842667 7.60188 1.05067 7.60188 1.296C7.60188 1.54133 7.51121 1.75467 7.32988 1.936C7.15921 2.11733 6.95121 2.208 6.70588 2.208C6.46054 2.208 6.24721 2.11733 6.06588 1.936C5.89521 1.75467 5.80988 1.54133 5.80988 1.296C5.80988 1.05067 5.89521 0.842667 6.06588 0.672ZM11.3078 0.672C11.4891 0.501333 11.7024 0.416 11.9478 0.416C12.1931 0.416 12.4011 0.501333 12.5718 0.672C12.7531 0.842667 12.8438 1.05067 12.8438 1.296C12.8438 1.54133 12.7531 1.75467 12.5718 1.936C12.4011 2.11733 12.1931 2.208 11.9478 2.208C11.7024 2.208 11.4891 2.11733 11.3078 1.936C11.1371 1.75467 11.0518 1.54133 11.0518 1.296C11.0518 1.05067 11.1371 0.842667 11.3078 0.672Z" fill="#A0B4C3"/>
</svg>
