<svg width="16" height="16" viewBox="0 0 16 16" fill="none" xmlns="http://www.w3.org/2000/svg">
<g id="zoom-out 1" clip-path="url(#clip0_823_1611)">
<path id="Vector" d="M14.1471 14.9779L14.1471 14.9779L12.6209 13.4518C11.3327 14.5483 9.69465 15.1514 7.99988 15.15M14.1471 14.9779L15.15 7.99988C15.1499 4.05728 11.9426 0.85 8 0.85C4.05734 0.85 0.85 4.05734 0.85 8C0.85 11.9426 4.05728 15.1499 7.99988 15.15M14.1471 14.9779L14.1483 14.9791M14.1471 14.9779L14.1483 14.9791M7.99988 15.15L8 15V15.15C7.99996 15.15 7.99992 15.15 7.99988 15.15ZM14.1483 14.9791C14.2589 15.0872 14.4077 15.1474 14.5623 15.1465C14.717 15.1457 14.8651 15.0838 14.9745 14.9745C15.0838 14.8651 15.1457 14.717 15.1465 14.5623C15.1474 14.4077 15.0872 14.2589 14.9791 14.1483L14.9779 14.1471M14.1483 14.9791L14.9779 14.1471M14.9779 14.1471L13.4518 12.6209M14.9779 14.1471L13.4518 12.6209M13.4518 12.6209C14.5482 11.3327 15.1513 9.69473 15.15 8L13.4518 12.6209ZM8 2.025C11.2945 2.025 13.975 4.70551 13.975 8C13.975 11.2945 11.2945 13.975 8 13.975C4.70551 13.975 2.025 11.2945 2.025 8C2.025 4.70551 4.70551 2.025 8 2.025ZM5.21157 7.58457C5.1014 7.69475 5.0395 7.84418 5.0395 8C5.0395 8.15581 5.1014 8.30525 5.21157 8.41542C5.32175 8.5256 5.47119 8.5875 5.627 8.5875H7.4125V10.373C7.4125 10.5288 7.4744 10.6782 7.58457 10.7884C7.69475 10.8986 7.84418 10.9605 8 10.9605C8.15581 10.9605 8.30525 10.8986 8.41542 10.7884C8.5256 10.6782 8.5875 10.5288 8.5875 10.373V8.5875H10.373C10.5288 8.5875 10.6782 8.5256 10.7884 8.41542C10.8986 8.30525 10.9605 8.15581 10.9605 8C10.9605 7.84418 10.8986 7.69475 10.7884 7.58457C10.6782 7.4744 10.5288 7.4125 10.373 7.4125H8.5875V5.627C8.5875 5.47119 8.5256 5.32175 8.41542 5.21157C8.30525 5.1014 8.15581 5.0395 8 5.0395C7.84418 5.0395 7.69475 5.1014 7.58457 5.21157C7.4744 5.32175 7.4125 5.47118 7.4125 5.627V7.4125H5.627C5.47118 7.4125 5.32175 7.4744 5.21157 7.58457Z" fill="#A0B4C3" stroke="#A0B4C3" stroke-width="0.3"/>
</g>
<defs>
<clipPath id="clip0_823_1611">
<rect width="16" height="16" fill="white"/>
</clipPath>
</defs>
</svg>
